<?xml version="1.0" encoding="UTF-8"?>
<svg xmlns="http://www.w3.org/2000/svg" xmlns:xlink="http://www.w3.org/1999/xlink" viewBox="0 0 1133.86 566.93">
  <defs>
    <style>
      .cls-1 {
        fill: #fff;
      }

      .cls-2 {
        fill: none;
      }

      .cls-3 {
        fill: #2b0021;
      }

      .cls-4 {
        fill: #e00016;
      }

      .cls-5 {
        clip-path: url(#clippath);
      }
    </style>
    <clipPath id="clippath">
      <path class="cls-2" d="M364.63,337.63c1.35-1.27,2.07-3.86,2.14-7.76.07-3.9-.61-10.45-2.06-19.66l-8.45-53.58c-1.5-9.48-2.85-16.12-4.05-19.92-1.2-3.79-2.51-6.04-3.92-6.78-1.41-.73-3.62-.8-6.63-.2-1.34.26-2.33.6-2.95,1.01l-19.84-122.54c8.44-8.85,19.45-14.62,33.01-17.3,8.7-1.72,16.05-.86,22.03,2.56,5.98,3.42,10.86,9.23,14.65,17.39,3.79,8.17,6.7,18.68,8.72,31.51,1.23,7.81,2.44,16.07,3.64,24.75,1.2,8.69,2.46,17.79,3.79,27.31,2.14,16.84,4.79,36.39,7.95,58.64,3.16,22.25,6.79,46.35,10.88,72.3l14.47,1.47,9.04,57.34-80.87,15.95-9.37-59.44c3.85-.76,6.45-1.77,7.81-3.05Z"/>
    </clipPath>
  </defs>
  <g id="Layer_3" data-name="Layer 3">
    <rect class="cls-3" x="0" width="1133.86" height="566.93"/>
  </g>
  <g id="Layer_1" data-name="Layer 1">
    <g>
      <path class="cls-4" d="M252.98,416.15c-10.69-2.09-20.44-5.86-29.23-11.32l-10.82-75.2c11.25,6.77,22.81,11.39,34.68,13.84,11.87,2.46,23.16,2.63,33.87.52,4.52-.89,7.69-2.41,9.51-4.57,1.82-2.16,2.41-5.27,1.76-9.34-.41-2.61-1.25-4.62-2.5-6.03-1.26-1.4-3.3-2.27-6.11-2.62-2.82-.34-6.97-.42-12.47-.24-14.22.71-26.47-1.45-36.75-6.47-10.29-5.01-18.86-13.66-25.71-25.95-6.86-12.28-11.94-28.9-15.24-49.83-6.51-41.28-4.59-71.78,5.77-91.51,10.35-19.73,27.84-32.02,52.45-36.87,11.38-2.24,22.88-1.59,34.88.31,11.92,1.89,16.22,6.9,23.51,14.25l21.76,137.34c-9.26-5.07-19.36-8.39-30.32-9.98-10.96-1.58-22.46-1.19-34.51,1.18-7.37,1.45-13.14,3.42-17.33,5.89-4.19,2.47-6.03,5.31-5.52,8.5.37,2.33,1.28,4.02,2.74,5.08,1.46,1.06,4.28,1.7,8.46,1.93,4.18.23,9.26.19,15.26-.09,18.75-.4,33.37.91,43.87,3.94,10.49,3.04,18.42,8.44,23.79,16.22,5.37,7.78,9.22,19.09,11.56,33.91,3.94,25.01.41,44.51-10.58,58.52-11,14.01-27.97,23.27-50.9,27.8-13.23,2.61-25.18,2.86-35.87.78Z"/>
      <path class="cls-4" d="M364.63,337.63c1.35-1.27,2.07-3.86,2.14-7.76.07-3.9-.61-10.45-2.06-19.66l-8.45-53.58c-1.5-9.48-2.85-16.12-4.05-19.92-1.2-3.79-2.51-6.04-3.92-6.78-1.41-.73-3.62-.8-6.63-.2-1.34.26-2.33.6-2.95,1.01l-19.84-122.54c8.44-8.85,19.45-14.62,33.01-17.3,8.7-1.72,16.05-.86,22.03,2.56,5.98,3.42,10.86,9.23,14.65,17.39,3.79,8.17,6.7,18.68,8.72,31.51,1.23,7.81,2.44,16.07,3.64,24.75,1.2,8.69,2.46,17.79,3.79,27.31,2.14,16.84,4.79,36.39,7.95,58.64,3.16,22.25,6.79,46.35,10.88,72.3l14.47,1.47,9.04,57.34-80.87,15.95-9.37-59.44c3.85-.76,6.45-1.77,7.81-3.05Z"/>
      <path class="cls-4" d="M514.46,330.52c-6.69,1.32-12.09,1.76-16.24,1.28-1.56-.19-2.96-.59-4.18-1.14,17.36-5.72,30.64-11.69,39.88-17.94,11.08-7.54,17.96-15.29,20.66-23.36,2.7-8.06,3.19-17.57,1.47-28.44-1.69-10.71-5.43-20.18-11.21-28.36-5.78-8.19-13.36-14.14-22.73-17.81-9.4-3.67-20.11-4.32-32.17-1.94-14.71,2.9-26.42,8.76-35.02,17.57-8.63,8.85-14.33,19.76-17.1,32.77-2.8,12.97-2.97,27.19-.55,42.56,2.27,14.4,6.48,27.04,12.58,37.88,6.1,10.84,14.68,18.81,25.78,23.94,11.07,5.18,24.76,6.12,40.98,2.92,8.87-1.75,17.68-4.95,26.45-9.57,8.77-4.66,17.36-9.99,22.21-15.38l-5.73-39.52c-7.25,6.66-14.77,12.03-22.57,16.2-7.81,4.13-15.32,6.91-22.51,8.33ZM482.51,296.92c1.11-2.89,3.14-4.68,6.17-5.27,2.18-.43,4.02.13,5.56,1.62,1.54,1.5,2.57,4.09,3.15,7.83.79,5.03.06,9.06-2.24,12.03-1.95,2.52-5.58,4.45-10.93,5.84-.85-2.89-1.6-6.42-2.26-10.64-.74-4.66-.55-8.46.55-11.4Z"/>
      <g>
        <path class="cls-1" d="M239.95,459.39l27.87-5.42,1.55,8-27.87,5.42-1.56-8ZM255.84,441.91l7.1,36.52c.29,1.48,1.31,2.57,3.08,3.26,1.76.7,3.77.83,6.02.39l1.21-.23,1.57,8.08-1.21.23c-3.7.72-7.22.79-10.54.2-3.33-.59-6.09-1.72-8.3-3.4-2.21-1.68-3.54-3.74-4.02-6.17l-7.1-36.52,12.19-2.37Z"/>
        <path class="cls-1" d="M270.43,433.24l12.31-2.39,4.17,21.47c.88-1.05,2.06-1.96,3.54-2.74,1.48-.78,3.18-1.36,5.11-1.73,3.86-.75,7.56-.81,11.11-.19,3.54.63,6.49,1.83,8.84,3.62,2.35,1.79,3.78,3.98,4.28,6.57l4.37,22.5-12.19,2.37-4.37-22.5c-.33-1.69-1.51-2.95-3.55-3.79-2.04-.83-4.35-1-6.92-.5-2.49.49-4.53,1.5-6.11,3.04-1.58,1.54-2.21,3.16-1.88,4.85l4.37,22.5-12.31,2.39-10.78-55.45Z"/>
        <path class="cls-1" d="M344.19,454.5l16.29-3.17c3.46-.67,5.35-1.67,5.68-3,.33-1.32-.81-2.34-3.41-3.04-2.6-.7-5.95-.65-10.05.15-2.82.55-5.32,1.53-7.51,2.94-2.19,1.41-3.83,3.05-4.93,4.91-1.1,1.86-1.47,3.71-1.11,5.56.37,1.9,1.39,3.51,3.07,4.83,1.67,1.32,3.79,2.24,6.36,2.75,2.56.52,5.25.5,8.07-.05,2.24-.49,4.3-1.19,6.17-2.1,1.87-.91,3.43-1.98,4.7-3.21l9.8,4.02c-2.17,2.17-4.93,4.08-8.28,5.72-3.36,1.64-6.92,2.83-10.7,3.56-5.07.99-9.9,1.06-14.48.23-4.59-.83-8.4-2.42-11.44-4.76-3.04-2.34-4.89-5.18-5.53-8.5-.65-3.33,0-6.66,1.94-10,1.94-3.34,4.88-6.25,8.82-8.74,3.94-2.49,8.45-4.23,13.51-5.22,9.09-1.77,16.22-1.15,21.4,1.84,5.17,3,6.85,6.68,5.03,11.06-1.82,4.38-6.99,7.4-15.52,9.06l-16.29,3.17-1.55-8Z"/>
        <path class="cls-1" d="M463.98,404.99c-3.95-.33-7.97-.09-12.07.7-5.63,1.09-10.62,3.01-14.97,5.75s-7.59,5.93-9.72,9.58c-2.13,3.65-2.83,7.32-2.12,11.02.71,3.64,2.73,6.75,6.07,9.3,3.33,2.56,7.53,4.29,12.59,5.2,5.06.91,10.41.81,16.04-.28,4.1-.8,7.94-2.09,11.52-3.88,3.58-1.79,6.59-3.88,9.05-6.28l9.8,4.02c-3.36,3.34-7.55,6.26-12.57,8.77-5.02,2.51-10.43,4.33-16.22,5.46-7.8,1.52-15.27,1.65-22.4.41-7.13-1.25-13.03-3.66-17.69-7.25-4.66-3.59-7.49-7.94-8.49-13.07-1-5.12,0-10.23,2.97-15.33,2.97-5.1,7.53-9.57,13.67-13.43,6.14-3.85,13.11-6.54,20.91-8.05,5.79-1.13,11.47-1.45,17.03-.97,5.56.48,10.56,1.63,15.01,3.45l-7.58,7.39c-3.27-1.34-6.87-2.17-10.82-2.5Z"/>
        <path class="cls-1" d="M506.81,442.99c-4.63-.83-8.48-2.41-11.57-4.74-3.08-2.33-4.95-5.19-5.61-8.57-.66-3.38,0-6.73,1.99-10.05,1.98-3.32,4.96-6.24,8.94-8.77,3.97-2.53,8.54-4.29,13.69-5.29,5.07-.98,9.94-1.05,14.61-.21,4.67.85,8.55,2.45,11.64,4.81,3.09,2.36,4.96,5.2,5.6,8.53.66,3.38,0,6.73-1.99,10.05-1.99,3.32-4.99,6.23-9.01,8.74s-8.57,4.25-13.63,5.24c-5.15,1-10.04,1.09-14.66.26ZM527.66,431.7c2.27-1.4,3.96-3.04,5.05-4.93,1.09-1.88,1.46-3.78,1.09-5.68-.37-1.9-1.42-3.52-3.14-4.86-1.72-1.34-3.92-2.24-6.6-2.7-2.68-.46-5.46-.42-8.36.15-2.82.55-5.34,1.53-7.57,2.95s-3.91,3.08-5.04,4.97c-1.13,1.89-1.52,3.79-1.15,5.69.38,1.95,1.43,3.59,3.14,4.9,1.71,1.31,3.87,2.19,6.46,2.65,2.59.46,5.34.4,8.23-.16,2.97-.58,5.6-1.57,7.88-2.97Z"/>
        <path class="cls-1" d="M552.6,404.78c1.42-2.36,3.54-4.43,6.37-6.21,2.83-1.78,6.05-3.03,9.67-3.73,2.9-.56,5.63-.67,8.2-.32,2.57.35,4.79,1.03,6.66,2.04,1.27-1.62,3.05-3.07,5.35-4.37,2.29-1.29,4.89-2.22,7.79-2.79,3.62-.7,7.09-.76,10.42-.18,3.33.59,6.07,1.71,8.23,3.37,2.16,1.66,3.47,3.68,3.93,6.06l4.56,23.45-12.19,2.37-4.56-23.45c-.28-1.43-1.28-2.48-2.99-3.16-1.72-.68-3.66-.81-5.83-.39s-3.93,1.28-5.26,2.58c-1.33,1.3-1.87,2.64-1.6,4.01l4.56,23.45-12.31,2.39-4.56-23.45c-.28-1.43-1.28-2.48-2.99-3.16-1.72-.68-3.66-.81-5.83-.39-2.09.41-3.8,1.26-5.14,2.56-1.33,1.3-1.87,2.64-1.6,4.01l4.56,23.45-12.31,2.39-4.56-23.45c-.46-2.38.02-4.74,1.44-7.1Z"/>
        <path class="cls-1" d="M633.66,439.42l-10.59-54.5,12.31-2.39,10.59,54.5-12.31,2.39ZM634.65,411.69l8.08-1.57c2.81-.55,5.3-1.48,7.47-2.81,2.16-1.32,3.8-2.89,4.91-4.7,1.11-1.8,1.49-3.61,1.14-5.4-.35-1.79-1.38-3.32-3.08-4.58-1.71-1.26-3.81-2.11-6.32-2.55-2.51-.45-5.17-.39-7.98.15l-8.21,1.59-1.57-8.08,8.21-1.59c4.99-.97,9.77-1.06,14.35-.28,4.58.78,8.36,2.32,11.35,4.62,2.99,2.3,4.81,5.08,5.44,8.36.64,3.28,0,6.52-1.92,9.75-1.92,3.22-4.86,6.05-8.81,8.49-3.95,2.44-8.42,4.14-13.41,5.11l-8.08,1.57-1.57-8.08Z"/>
        <path class="cls-1" d="M690.98,387.09l16.29-3.17c3.46-.67,5.35-1.67,5.68-3,.33-1.32-.81-2.34-3.41-3.04-2.6-.7-5.95-.65-10.05.15-2.82.55-5.32,1.53-7.5,2.94-2.19,1.41-3.83,3.05-4.93,4.91-1.1,1.86-1.47,3.71-1.11,5.56.37,1.9,1.39,3.51,3.07,4.83,1.67,1.32,3.79,2.24,6.36,2.75,2.56.52,5.25.5,8.07-.05,2.24-.49,4.3-1.19,6.17-2.1,1.87-.91,3.43-1.98,4.7-3.21l9.8,4.02c-2.17,2.17-4.93,4.08-8.28,5.72-3.36,1.64-6.92,2.82-10.7,3.56-5.07.98-9.9,1.06-14.48.23-4.59-.83-8.4-2.42-11.44-4.76-3.04-2.34-4.89-5.17-5.54-8.5-.65-3.33,0-6.66,1.94-10,1.94-3.34,4.88-6.25,8.82-8.74,3.94-2.49,8.44-4.23,13.51-5.22,9.09-1.77,16.22-1.15,21.4,1.84,5.17,3,6.85,6.68,5.03,11.07-1.82,4.38-6.99,7.4-15.52,9.06l-16.29,3.17-1.56-8Z"/>
        <path class="cls-1" d="M725.63,364.98l27.88-5.42,1.55,8-27.87,5.42-1.56-8ZM741.52,347.5l7.1,36.52c.29,1.48,1.31,2.57,3.08,3.26,1.76.7,3.77.83,6.02.39l1.21-.23,1.57,8.08-1.21.24c-3.7.72-7.22.79-10.54.2-3.33-.59-6.09-1.72-8.3-3.4-2.21-1.68-3.54-3.74-4.02-6.17l-7.1-36.52,12.19-2.37Z"/>
        <path class="cls-1" d="M768.42,336.44l2.23,11.49-12.31,2.39-2.23-11.49,12.31-2.39ZM772.21,355.93l6.99,35.96-12.31,2.39-6.99-35.96,12.31-2.39Z"/>
        <path class="cls-1" d="M778,354.8l27.87-5.42,1.56,8-27.87,5.42-1.55-8ZM793.89,337.32l7.1,36.52c.29,1.48,1.31,2.57,3.08,3.27,1.76.7,3.77.83,6.02.39l1.21-.23,1.57,8.08-1.21.23c-3.7.72-7.22.79-10.54.2-3.33-.59-6.09-1.72-8.3-3.4-2.21-1.68-3.54-3.74-4.02-6.17l-7.1-36.52,12.19-2.37Z"/>
        <path class="cls-1" d="M820.79,326.26l2.23,11.49-12.31,2.39-2.23-11.49,12.31-2.39ZM824.57,345.75l6.99,35.96-12.31,2.39-6.99-35.96,12.31-2.39Z"/>
        <path class="cls-1" d="M851.43,376c-4.63-.83-8.48-2.41-11.57-4.74-3.08-2.33-4.95-5.19-5.61-8.57-.66-3.38,0-6.73,1.99-10.05,1.98-3.32,4.96-6.24,8.94-8.77,3.97-2.52,8.54-4.29,13.69-5.29,5.07-.99,9.94-1.05,14.61-.21,4.67.85,8.55,2.45,11.64,4.81,3.09,2.36,4.96,5.2,5.6,8.53.66,3.38,0,6.73-1.99,10.05-1.99,3.32-4.99,6.23-9.01,8.74-4.02,2.51-8.57,4.25-13.63,5.24-5.15,1-10.04,1.09-14.66.26ZM872.28,364.71c2.27-1.4,3.96-3.04,5.05-4.93,1.09-1.88,1.46-3.78,1.09-5.68-.37-1.9-1.42-3.52-3.14-4.86-1.72-1.34-3.92-2.24-6.6-2.7-2.68-.47-5.46-.42-8.36.15-2.82.55-5.34,1.53-7.57,2.95-2.23,1.42-3.91,3.08-5.04,4.97-1.13,1.89-1.52,3.79-1.15,5.69.38,1.95,1.43,3.59,3.14,4.9,1.71,1.31,3.87,2.2,6.46,2.65,2.59.46,5.34.4,8.23-.16,2.97-.58,5.6-1.57,7.88-2.97Z"/>
        <path class="cls-1" d="M931.48,362.29l-4.36-22.42c-.22-1.11-.84-2.06-1.87-2.84-1.03-.79-2.32-1.32-3.88-1.59-1.56-.27-3.18-.25-4.87.08-1.69.33-3.2.91-4.54,1.75-1.34.83-2.34,1.81-3,2.93s-.88,2.23-.67,3.34l4.36,22.42-12.31,2.39-4.36-22.42c-.5-2.59,0-5.15,1.51-7.69,1.51-2.54,3.81-4.78,6.89-6.72,3.09-1.94,6.6-3.3,10.54-4.06,3.94-.77,7.69-.82,11.24-.17,3.55.65,6.5,1.87,8.85,3.66s3.78,3.98,4.28,6.57l4.36,22.42-12.19,2.37Z"/>
      </g>
      <path class="cls-4" d="M580.86,324.98c1.89-1.13,2.69-2.64,2.39-4.54l-.17-1.1c-.32-2.04-1.04-3.34-2.16-3.87-1.12-.53-2.94-.55-5.45-.06l-3.98,1.01-9.65-63.03c4.7-3.04,7.6-5.19,12.3-7.18,4.69-1.98,9.89-3.54,15.58-4.66,9.21-1.82,16.58-2.4,22.12-1.76,5.54.64,9.89,2.8,13.06,6.47,3.17,3.67,5.38,9.46,6.62,17.36.39,2.49.81,6.78,1.25,12.87,1.63,15.82,3.03,28.52,4.19,38.09l8.96-.64,4.81,30.5-74.09,14.61-4.91-31.16c4.18-.82,7.23-1.8,9.12-2.93Z"/>
      <path class="cls-4" d="M764.85,228.2c-2.3-15.88-9.59-64.15-9.59-64.15l-51.3,9.49-2.42,21.38c-3.61-6.06-7.66-10.52-12.18-13.44-6.45-4.14-14.19-5.39-23.27-3.71-14.07,2.61-23.27,9.91-27.58,21.88-4.27,11.99-5.12,26.9-2.54,44.74,2.37,16.35,7.23,29.89,14.57,40.66,7.31,10.75,18.34,14.75,33.11,12.01,8.89-1.65,15.45-5.19,19.63-10.63,2.13-2.76,3.86-5.83,5.12-9.23l.35,2.39c.66,4.54.66,8.36,0,11.42-.69,3.07-2.33,5.67-4.94,7.78-2.64,2.14-6.39,3.64-11.23,4.54-6.04,1.12-12.55,1.45-19.49,1.06-6.95-.43-15.38-1.33-21.72-3.43l5.52,30.91c6.17,2.25,15.19,3.12,23.4,3.31,8.18.2,17.66-.69,28.42-2.68,21.95-4.07,38.47-11.92,49.52-23.52,11.08-11.6,15.22-26.93,12.45-45.99-.84-5.77-2.02-12.83-3.6-21.24l-2.23-13.57ZM704.43,266.56c-1.3,2.47-3.26,3.97-5.94,4.47-3.19.59-5.72-.46-7.57-3.13-1.85-2.7-3.24-7.13-4.14-13.34-.77-5.29-.65-9.42.28-12.41.97-2.96,3.11-4.75,6.46-5.37,5.85-1.08,9.46,2.97,10.8,12.2l.96,6.59c.7,4.85.42,8.5-.84,11Z"/>
      <path class="cls-4" d="M924.35,240.05l6.08,38.55c-1.9,3.23-6.39,6.55-13.44,9.92-7.08,3.42-14.38,5.83-21.89,7.31-7.54,1.49-14,1.84-19.4,1.02-5.4-.82-9.82-3.22-13.3-7.13-3.46-3.97-5.8-9.72-6.98-17.21-.47-2.99-.99-7.3-1.52-12.95-.38-3.42-.75-6.8-1.06-10.05-.77-4.91-2.06-8.29-3.81-10.15-1.76-1.86-3.99-2.57-6.67-2.04-3.5.69-6.19,3.29-7.96,7.73-1.4,3.5-2.22,8.21-2.41,14.23l9.41-1.85,7.24,47.57-65.57,12.93-7.4-48.55c4.36-.86,7.34-1.77,8.91-2.77,1.57-.95,2.44-2.69,2.67-5.17.23-2.44-.16-6.78-1.14-13.03l-7.85-49.75c-.78-4.95-1.65-8.6-2.64-10.94-.99-2.34-2.21-3.89-3.68-4.57-1.51-.71-3.58-.81-6.26-.28-1.52.3-2.58.74-3.18,1.32l-13.46-93.74c4.14-3.48,6.71-6.02,11.35-8.36,4.64-2.39,9.87-4.11,15.74-5.27,6.53-1.29,12.23-.66,17.13,1.91,4.9,2.58,8.91,6.76,12.07,12.53,3.16,5.77,5.43,12.96,6.78,21.53,1.25,7.9,4.38,32.13,9.38,72.69,1.08,8.71,2.13,17.43,3.22,26.19-.05-7.77.11-14.98.5-21.63,1.04-18.98,4.66-34.23,10.79-45.7,6.1-11.46,15.45-18.46,28.01-20.94,11.71-2.31,21.29.86,28.7,9.43,7.37,8.58,12.33,20.8,14.83,36.65,1.08,6.87,1.72,13.37,1.9,19.5.19,6.17.22,13.76.12,22.84-.21,10.85.03,18.35.67,22.41,1.01,6.43,3.7,9.21,8.05,8.35,1.17-.23,3.18-1.09,6.08-2.53Z"/>
      <path class="cls-1" d="M621.94,181.91l-4.99-3.36,3.43-5.09c.88-1.29.52-3.05-.81-3.9-1.28-.82-3-.37-3.85.9l-4.27,6.33-7.79,1.51c-4.51.88-8.96.26-12.86-1.49.45-2.15,1.31-4.25,2.62-6.19l3.61-5.36,6.21-1.2c.61-.12,1.13-.48,1.44-.96.32-.47.46-1.05.36-1.64-.21-1.26-1.52-2.07-2.76-1.82l-4.82.94-.95-4.91c-.25-1.25-1.47-2.06-2.72-1.78-1.22.27-1.94,1.51-1.71,2.73l1.18,6.12-3.61,5.37c-1.31,1.93-2.92,3.51-4.75,4.73-3.11-2.94-5.34-6.85-6.23-11.36l-1.51-7.78,4.34-6.44c.87-1.29.5-3.05-.83-3.9-1.28-.82-2.99-.37-3.85.88l-3.36,5-5.1-3.44c-1.28-.87-3.05-.5-3.9.83-.81,1.28-.36,2.99.9,3.85l6.34,4.27,1.51,7.78c.87,4.51.25,8.98-1.51,12.87-2.15-.45-4.24-1.31-6.17-2.62l-5.36-3.61-1.21-6.21c-.23-1.24-1.47-2.05-2.72-1.78-1.2.28-1.94,1.53-1.71,2.73l.94,4.82-4.91.96c-1.24.23-2.06,1.47-1.77,2.72.27,1.2,1.51,1.94,2.72,1.71l6.13-1.2,5.36,3.61c1.93,1.31,3.51,2.92,4.73,4.75-2.94,3.1-6.85,5.34-11.37,6.22l-7.78,1.52-6.44-4.34c-1.29-.88-3.05-.52-3.9.81-.81,1.28-.37,2.99.88,3.85l5,3.37-3.37,4.99c-.87,1.29-.57,3.14.74,3.98.62.4,1.35.52,2.02.39.7-.13,1.34-.53,1.77-1.17l4.35-6.44,7.78-1.51c4.51-.88,8.98-.26,12.87,1.51-.45,2.15-1.3,4.24-2.61,6.17l-3.61,5.37-6.21,1.21c-1.25.24-2.06,1.46-1.78,2.71.27,1.22,1.51,1.94,2.73,1.71l4.82-.94.94,4.82c.24,1.25,1.47,2.14,2.72,1.87.59-.13,1.07-.47,1.39-.95.32-.47.47-1.07.34-1.69l-1.2-6.22,3.61-5.35c1.29-1.93,2.91-3.51,4.74-4.74,3.1,2.94,5.33,6.85,6.22,11.36l1.51,7.78-4.34,6.45c-.85,1.27-.53,2.99.74,3.85.65.43,1.4.56,2.09.41.68-.13,1.33-.53,1.77-1.17l3.43-5.08,5.08,3.43c.64.43,1.38.56,2.08.43.7-.14,1.35-.54,1.77-1.18.87-1.26.53-2.99-.74-3.85l-6.44-4.34-1.51-7.78c-.87-4.52-.26-8.98,1.51-12.87,2.15.45,4.25,1.31,6.19,2.62l5.36,3.61,1.21,6.21c.23,1.23,1.42,2.02,2.65,1.79.61-.13,1.12-.48,1.44-.96.32-.48.47-1.09.35-1.69l-.95-4.91,4.91-.96c.61-.12,1.12-.47,1.44-.95.32-.48.47-1.09.34-1.7-.23-1.23-1.42-2.02-2.65-1.79l-6.21,1.21-5.36-3.61c-1.93-1.31-3.52-2.94-4.74-4.76,2.94-3.08,6.85-5.33,11.35-6.2l7.79-1.51,6.44,4.34c.64.43,1.38.56,2.08.41.67-.13,1.31-.51,1.73-1.12.9-1.27.48-3.1-.82-3.97ZM572.45,187.2l2.78-4.11,3.75-5.57,4.1,2.76,1.5,1,4.1,2.77-2.76,4.1-3.78,5.59-4.12-2.77-1.46-.99-4.11-2.77Z"/>
      <g class="cls-5">
        <rect class="cls-1" x="354.4" y="382.2" width="136.87" height="22.15" transform="translate(-129.17 562.83) rotate(-60)"/>
        <rect class="cls-1" x="331.03" y="329.39" width="147.49" height="22.27" transform="translate(-92.52 520.81) rotate(-60)"/>
        <rect class="cls-1" x="308.36" y="275.31" width="156.67" height="23.26" transform="translate(-55.15 478.36) rotate(-60)"/>
        <rect class="cls-1" x="308.81" y="211.1" width="136.87" height="21.04" transform="translate(-3.3 437.52) rotate(-60)"/>
        <rect class="cls-1" x="291.2" y="149.88" width="136.87" height="26.24" transform="translate(38.65 392.96) rotate(-60)"/>
        <rect class="cls-1" x="270.99" y="90.67" width="136.87" height="24.44" transform="translate(80.61 345.4) rotate(-60)"/>
      </g>
      <path class="cls-2" d="M364.63,337.63c1.35-1.27,2.07-3.86,2.14-7.76.07-3.9-.61-10.45-2.06-19.66l-8.45-53.58c-1.5-9.48-2.85-16.12-4.05-19.92-1.2-3.79-2.51-6.04-3.92-6.78-1.41-.73-3.62-.8-6.63-.2-1.34.26-2.33.6-2.95,1.01l-19.84-122.54c8.44-8.85,19.45-14.62,33.01-17.3,8.7-1.72,16.05-.86,22.03,2.56,5.98,3.42,10.86,9.23,14.65,17.39,3.79,8.17,6.7,18.68,8.72,31.51,1.23,7.81,2.44,16.07,3.64,24.75,1.2,8.69,2.46,17.79,3.79,27.31,2.14,16.84,4.79,36.39,7.95,58.64,3.16,22.25,6.79,46.35,10.88,72.3l14.47,1.47,9.04,57.34-80.87,15.95-9.37-59.44c3.85-.76,6.45-1.77,7.81-3.05Z"/>
    </g>
  </g>
</svg>